<?xml version="1.0" encoding="utf-8"?>
<svg xml:space="preserve" viewBox="0 0 100 100" y="0" x="0" xmlns="http://www.w3.org/2000/svg" id="圖層_1" version="1.1" style="height: 100%; width: 100%; background: rgb(255, 255, 255); shape-rendering: auto;" width="128px" height="128px"><g class="ldl-scale" style="transform-origin: 50% 50%; transform: scale(1);"><g class="ldl-ani"><g class="ldl-layer"><g class="ldl-ani" style="transform-origin: 50px 50px; transform: rotate(0deg); animation: 1.11111s linear -0.833333s infinite normal forwards running spin-1c7cce24-6b89-488b-8176-ea3ee7f44183;"><circle fill="#333" r="40" cy="50" cx="50" style="fill: rgb(0, 0, 0);"></circle></g></g><g class="ldl-layer"><g class="ldl-ani" style="transform-origin: 50px 50px; transform: rotate(0deg); animation: 1.11111s linear -1.11111s infinite normal forwards running spin-1c7cce24-6b89-488b-8176-ea3ee7f44183;"><path fill="#fff" d="M59.2 50.4c-.7-1.9-2.3-3.3-4.2-4-.4-.3-.9-.8-1.1-2.2 0-.3-.1-.7-.1-1.2V32.8c.4-.3.6-.8.6-1.4v-6.6c0-1-.8-1.8-1.8-1.8h-5.4c-1 0-1.8.8-1.8 1.8v6.6c0 .5.2 1 .6 1.4V43c0 .5 0 .8-.1 1.2-.2 1.5-.7 2-1.1 2.2-1.9.6-3.4 2.1-4.2 4-.3.8-.5 1.6-.5 2.5v20.3c0 2.1 1.7 3.8 3.8 3.8h11.9c2.1 0 3.8-1.7 3.8-3.8V52.9c.1-.9 0-1.7-.4-2.5zm-3.3 24.5H44.1c-.9 0-1.6-.7-1.6-1.6V52.9c0-.6.1-1.2.3-1.7.5-1.3 1.6-2.3 2.9-2.8.1 0 .1 0 .2-.1h.1c1.2-.7 2-2 2.2-3.9.1-.4.1-.9.1-1.4v-9.7h3.6V43c0 .6 0 1 .1 1.4.2 1.9 1 3.2 2.2 3.9h.1s.1 0 .2.1c1.4.4 2.4 1.4 2.9 2.8.2.5.3 1 .3 1.7v.9H47.4c-1.5 0-2.8 1.2-2.8 2.8V68c0 1.5 1.2 2.8 2.8 2.8h10.2v2.5c0 .8-.8 1.6-1.7 1.6z" style="fill: rgb(255, 255, 255);"></path></g></g><metadata xmlns:d="https://loading.io/stock/"><d:name>wine</d:name><d:tags>wine,bottle,drink,wine tasting,cup,decant,alcohol,liqueur</d:tags><d:license>by</d:license><d:slug>xdh3s1</d:slug></metadata></g></g><style id="spin-1c7cce24-6b89-488b-8176-ea3ee7f44183" data-anikit="">@keyframes spin-1c7cce24-6b89-488b-8176-ea3ee7f44183
{
  0% {
    animation-timing-function: cubic-bezier(0.5856,0.0703,0.4143,0.9297);
    transform: rotate(0deg);
  }
  100% {
    transform: rotate(360deg);
  }
}</style><!-- [ldio] generated by https://loading.io/ --></svg>